M48
; DRILL file {KiCad 9.0.4} date 2025-09-16T16:31:28+0200
; FORMAT={-:-/ absolute / metric / decimal}
; #@! TF.CreationDate,2025-09-16T16:31:28+02:00
; #@! TF.GenerationSoftware,Kicad,Pcbnew,9.0.4
; #@! TF.FileFunction,Plated,1,2,PTH
FMAT,2
METRIC
; #@! TA.AperFunction,Plated,PTH,ViaDrill
T1C0.250
; #@! TA.AperFunction,Plated,PTH,ViaDrill
T2C0.300
; #@! TA.AperFunction,Plated,PTH,ComponentDrill
T3C0.500
; #@! TA.AperFunction,Plated,PTH,ComponentDrill
T4C0.600
; #@! TA.AperFunction,Plated,PTH,ComponentDrill
T5C0.800
; #@! TA.AperFunction,Plated,PTH,ComponentDrill
T6C0.900
; #@! TA.AperFunction,Plated,PTH,ComponentDrill
T7C0.950
; #@! TA.AperFunction,Plated,PTH,ComponentDrill
T8C0.990
; #@! TA.AperFunction,Plated,PTH,ComponentDrill
T9C1.000
; #@! TA.AperFunction,Plated,PTH,ComponentDrill
T10C1.300
; #@! TA.AperFunction,Plated,PTH,ComponentDrill
T11C1.500
; #@! TA.AperFunction,Plated,PTH,ComponentDrill
T12C1.800
%
G90
G05
T1
X140.8Y-123.2
X142.15Y-120.0
X142.15Y-121.3
X144.7Y-115.95
X145.0Y-112.2
X147.5Y-71.0
X147.5Y-76.5
X147.5Y-82.0
X147.5Y-87.5
X147.5Y-93.0
X147.5Y-98.5
X147.5Y-104.0
X150.25Y-116.326
X151.5Y-65.5
X151.65Y-118.7
X152.45Y-119.95
X152.55Y-113.25
X155.3Y-119.95
X155.6Y-89.35
X155.65Y-67.4
X155.65Y-100.4
X155.7Y-78.4
X157.0Y-65.5
X157.7Y-72.9
X157.7Y-83.9
X157.7Y-94.9
X157.7Y-105.9
X162.5Y-65.5
X163.45Y-73.85
X163.5Y-95.9
X163.7Y-84.95
X163.7Y-106.8
X164.6Y-108.55
X165.4Y-86.4
X166.125Y-84.0
X166.125Y-91.95
X166.3Y-77.6
X166.875Y-97.8
X167.0Y-75.55
X167.5Y-104.0
X167.505Y-101.988
X167.8Y-87.1
X167.85Y-85.225
X167.9Y-72.9
X168.0Y-65.5
X168.274Y-116.326
X168.45Y-94.45
X169.2Y-75.6
X169.2Y-82.2
X169.2Y-97.1
X169.2Y-98.612
X169.2Y-100.112
X169.35Y-118.9
X169.5Y-117.4
X170.116Y-79.834
X170.15Y-81.0
X170.195Y-104.012
X170.2Y-102.0
X170.75Y-75.65
X171.1Y-114.95
X171.1Y-117.85
X171.723Y-93.2
X172.95Y-97.3
X173.5Y-65.5
X173.5Y-99.4
X173.55Y-90.7
X173.6Y-74.9
X173.7Y-80.2
X174.2Y-87.2
X174.2Y-88.9
X174.5Y-104.1
X174.55Y-108.55
X177.5Y-89.2
X177.6Y-104.3
X178.0Y-95.65
X178.1Y-76.65
X178.1Y-85.5
X178.45Y-99.275
X178.45Y-102.15
X179.0Y-65.5
X179.1Y-74.9
X179.3Y-83.35
X179.949Y-78.003
X180.0Y-80.0
X180.5Y-91.9
X180.55Y-83.25
X180.55Y-96.3
X181.8Y-90.65
X181.8Y-95.65
X182.3Y-87.05
X182.4Y-99.275
X183.05Y-96.35
X183.2Y-104.3
X183.8Y-90.8
X184.3Y-88.05
X184.4Y-76.65
X184.5Y-65.5
X184.6Y-74.9
X185.7Y-78.1
X187.0Y-78.1
X187.0Y-85.4
X187.0Y-90.6
X187.6Y-92.7
X187.6Y-97.4
X188.05Y-102.55
X188.5Y-87.0
X188.7Y-69.05
X189.0Y-71.75
X189.01Y-70.95
X190.0Y-65.5
X190.1Y-74.9
X190.95Y-69.45
X191.25Y-93.05
X191.5Y-73.0
X191.5Y-96.3
X191.9Y-97.4
X192.45Y-69.45
X192.9Y-87.0
X193.75Y-95.75
X193.95Y-88.7
X194.604Y-91.418
X195.5Y-65.5
X196.0Y-115.5
X196.0Y-122.5
X197.7Y-69.6
X199.2Y-76.4
X199.5Y-115.5
X200.4Y-77.6
X200.431Y-82.4
X200.9Y-79.1
X201.0Y-65.5
X201.0Y-110.55
X201.1Y-73.8
X201.5Y-88.5
X201.5Y-90.5
X201.5Y-122.5
X202.0Y-108.0
X202.231Y-81.4
X202.281Y-83.4
X202.3Y-67.0
X205.0Y-108.0
X205.483Y-82.69
X206.5Y-65.5
X206.781Y-84.55
X206.8Y-83.0
X207.0Y-95.0
X207.0Y-99.0
X207.0Y-103.0
X207.0Y-122.5
X209.0Y-95.0
X209.0Y-99.0
X209.0Y-103.0
X212.0Y-65.5
X212.5Y-122.5
X217.5Y-65.5
X218.0Y-122.5
X221.0Y-68.5
X221.0Y-74.0
X221.0Y-88.0
X221.0Y-93.5
X221.0Y-98.0
X221.0Y-103.5
X221.0Y-109.0
X221.0Y-114.5
X221.0Y-120.0
T2
X143.05Y-118.35
X143.05Y-119.05
X143.75Y-118.35
X143.75Y-119.05
X152.7Y-121.15
X153.75Y-122.2
X154.75Y-121.15
X155.8Y-122.2
X156.15Y-115.25
X156.15Y-117.3
X161.95Y-112.2
X161.95Y-113.8
X161.95Y-115.3
X164.0Y-112.2
X164.0Y-113.8
X164.0Y-115.3
X166.8Y-115.3
X166.8Y-117.35
X168.65Y-121.55
X171.0Y-121.55
X175.55Y-115.35
X175.55Y-117.4
X177.35Y-111.85
X177.35Y-113.6
X177.35Y-115.35
X177.35Y-117.4
X179.5Y-111.85
X179.5Y-113.6
X179.5Y-115.35
X179.5Y-117.4
X182.6Y-115.3
X182.6Y-117.3
X187.596Y-115.5
X189.046Y-114.0
X190.0Y-115.5
X190.65Y-112.4
X191.45Y-114.0
X193.054Y-112.4
T4
X149.05Y-89.2
X149.05Y-96.8
X149.05Y-100.2
X149.05Y-107.8
X149.102Y-67.201
X149.102Y-74.801
X149.15Y-78.201
X149.15Y-85.801
T5
X196.2Y-71.95
X196.2Y-74.45
X203.035Y-71.953
X203.035Y-74.453
T6
X162.05Y-69.26
X162.05Y-71.8
X162.098Y-91.359
X162.098Y-93.899
X162.168Y-80.345
X162.168Y-82.885
X162.198Y-102.359
X162.198Y-104.899
X190.7Y-81.7
X193.24Y-81.7
X210.03Y-81.6
X212.57Y-81.6
T7
X126.7Y-92.25
X126.7Y-95.75
T8
X159.3Y-121.0
X163.8Y-121.0
X182.2Y-121.0
X186.7Y-121.0
T9
X210.986Y-114.292
T10
X158.04Y-118.51
X165.05Y-118.51
X180.94Y-118.51
X187.95Y-118.51
T11
X204.5Y-90.85
X204.5Y-100.9
X220.2Y-90.85
X220.2Y-100.9
T12
X207.686Y-110.992
X207.686Y-117.592
X214.286Y-110.992
X214.286Y-117.592
T3
G00X133.81Y-97.15
M15
G01X133.81Y-96.45
M16
G05
G00X133.81Y-108.15
M15
G01X133.81Y-107.45
M16
G05
G00X133.862Y-75.151
M15
G01X133.862Y-74.451
M16
G05
G00X133.91Y-86.151
M15
G01X133.91Y-85.451
M16
G05
G00X136.35Y-89.55
M15
G01X136.35Y-88.85
M16
G05
G00X136.35Y-100.55
M15
G01X136.35Y-99.85
M16
G05
G00X136.402Y-67.551
M15
G01X136.402Y-66.851
M16
G05
G00X136.45Y-78.551
M15
G01X136.45Y-77.851
M16
G05
T9
G00X208.935Y-73.35
M15
G01X208.935Y-71.15
M16
G05
G00X212.935Y-67.45
M15
G01X210.735Y-67.45
M16
G05
G00X215.235Y-73.35
M15
G01X215.235Y-71.15
M16
G05
M30
